<svg width="1472" height="351" viewBox="0 0 1472 351" fill="none" xmlns="http://www.w3.org/2000/svg">
<path d="M461.477 200.546C438.108 186.242 431.456 164.698 436.048 139.623C440.816 113.723 459.299 99.8904 483.374 94.0041C508.273 87.8824 533.054 88.9419 555.775 102.834C559.483 105.129 561.249 103.01 563.486 101.127C572.315 93.7098 582.734 91.0021 594.036 90.3546C598.686 90.0603 600.157 91.7673 599.981 96.2998C599.687 104.011 599.745 111.781 599.981 119.551C600.099 123.377 598.862 125.025 594.86 124.789C589.621 124.554 584.323 124.966 579.143 124.672C574.317 124.436 572.786 125.26 573.963 130.793C578.849 153.75 573.61 174.175 555.716 190.009C539.47 204.372 519.633 208.551 498.501 207.904C495.499 207.786 492.438 207.786 489.554 207.139C482.373 205.667 478.017 207.963 476.663 215.438C475.015 224.503 477.605 230.86 484.727 233.509C489.672 235.334 494.97 235.569 500.208 235.805C517.691 236.57 535.232 234.745 552.655 237.041C569.902 239.337 586.148 243.869 592.976 262.058C600.452 281.953 597.744 301.025 584.264 317.801C568.195 337.755 545.886 345.937 521.517 349.175C500.738 352 480.077 350.764 460.358 342.641C437.46 333.223 426.512 313.504 431.869 291.312C434.871 278.892 442.758 270.24 453.589 263.941C455.826 262.646 459.063 262.058 455.237 258.29C438.108 241.632 438.461 222.031 455.826 205.608C457.474 204.078 459.357 202.488 461.477 200.546ZM508.979 327.101C514.571 327.337 519.986 326.336 525.343 325.159C536.468 322.686 546.004 317.506 551.772 307.147C562.485 288.016 553.185 270.652 531.935 268.415C514.983 266.649 498.03 269.827 481.137 267.65C478.017 267.238 476.722 269.651 475.545 271.829C468.717 285.014 469.188 298.494 475.545 311.444C482.314 325.217 495.911 326.042 508.979 327.101ZM479.547 146.922C479.371 156.752 480.018 165.699 483.903 174.058C488.377 183.593 496.676 188.302 507.625 187.655C517.161 187.066 524.695 181.062 527.403 170.938C531.288 156.458 531.464 141.801 527.462 127.262C524.578 116.902 517.455 111.722 506.507 111.369C494.263 110.957 486.67 115.489 482.726 125.613C479.959 132.736 479.194 140.153 479.547 146.922ZM673.442 185.536C673.442 200.781 673.736 216.027 673.324 231.272C673.147 237.335 675.149 239.866 681.094 240.22C684.92 240.455 690.571 239.69 691.807 243.575C693.337 248.343 692.454 253.935 692.16 259.173C691.984 261.999 687.392 261.469 687.392 261.469L619.876 261.528C619.876 261.528 614.285 260.292 614.697 256.348C614.873 254.641 614.932 252.816 614.697 251.109C613.578 243.81 615.933 239.807 623.997 239.925C629.824 239.984 631.531 236.864 631.531 230.919C631.237 179.414 631.237 127.968 631.531 76.463C631.59 69.6937 629.412 66.9272 623.055 66.6329C622.054 66.574 621.054 66.3974 620.112 66.2208C611.695 64.9258 607.633 56.9794 611.106 49.0918C611.989 47.0316 613.637 46.9727 615.344 46.7372C632.65 44.3239 649.955 41.9693 667.261 39.4971C672.088 38.7907 673.147 41.0864 673.089 45.4422C672.971 65.1613 673.089 84.9392 673.206 104.658C673.206 106.718 671.852 109.603 674.266 110.721C676.503 111.722 678.327 109.25 680.093 108.072C695.162 97.8302 711.467 92.0028 730.068 93.0035C750.729 94.1219 763.325 104.482 767.446 125.143C769.918 137.445 770.507 149.924 770.448 162.403C770.33 185.124 770.742 207.904 770.212 230.625C770.095 237.217 772.39 239.454 778.394 240.043C781.985 240.337 787.518 239.278 788.636 242.81C790.167 247.813 789.343 253.64 789.225 259.114C789.166 261.528 785.163 261.292 785.163 261.292L717.648 261.351C717.648 261.351 712.88 259.644 712.939 256.348C712.998 254.111 713.174 251.815 712.88 249.579C712.115 243.634 714.763 240.632 720.591 240.396C726.83 240.102 728.714 237.159 728.537 230.801C727.713 202.312 729.479 173.822 727.478 145.391C725.947 123.848 715.058 116.254 694.103 121.905C692.631 122.317 691.218 122.788 689.806 123.2C674.678 127.909 673.383 129.616 673.383 145.038C673.442 158.577 673.442 172.056 673.442 185.536ZM20.8879 160.99C20.8879 133.03 20.7701 105.011 21.0056 77.0516C21.0644 71.6362 20.0049 68.3988 14.0009 68.5165C13.0591 68.5165 12.0584 68.1044 11.0578 67.9279C1.87515 66.3386 -2.12753 59.275 1.10993 50.7399C1.93401 48.562 3.52331 48.5031 5.23033 48.2677C22.7715 45.8543 40.3715 43.4998 57.8537 40.9686C62.8571 40.2623 63.0337 42.9111 63.0337 46.6195C62.9748 64.3372 62.9748 82.1138 63.0337 99.8315C63.0337 102.186 61.9741 105.482 64.623 106.66C66.742 107.601 68.5079 104.894 70.2738 103.599C98.1159 82.9379 143.617 88.2356 157.921 129.969C169.046 162.403 169.163 195.072 152.27 225.798C138.319 251.168 115.834 264 86.6377 264.589C66.742 265.001 47.3173 262.823 28.3046 256.524C22.8303 254.7 20.6524 251.933 20.7701 245.753C21.0644 217.44 20.8879 189.244 20.8879 160.99ZM62.9748 183.888C62.9748 200.134 63.0925 216.38 62.9159 232.626C62.8571 237.1 63.9755 240.219 68.2725 242.28C79.4564 247.577 93.5835 245.223 102.177 236.335C107.887 230.448 111.36 223.326 113.715 215.615C119.777 195.837 119.424 175.706 117.305 155.457C116.607 148.735 114.755 142.184 111.831 136.091C103.178 118.079 84.342 113.429 68.037 125.143C64.5053 127.674 62.8571 130.617 62.9159 135.149C63.1514 151.395 62.9748 167.642 62.9748 183.888Z" fill="white"/>
<path d="M1068.12 247.165C1058.58 255.759 1048.05 262.234 1035.04 264.589C1009.14 269.298 983.826 256.407 973.29 232.273C959.692 201.017 959.751 169.466 972.701 138.21C986.298 105.364 1021.5 87.2936 1056.52 94.2982C1066.59 96.2996 1067.71 95.3577 1067.71 85.1745C1067.71 81.1718 1067.41 77.1691 1067.76 73.1664C1068.29 67.1624 1066.29 64.1016 1059.88 64.749C1056.11 65.1022 1052.46 64.1604 1048.81 63.5129C1041.04 62.1002 1039.39 59.8634 1040.75 51.9169C1041.16 49.5036 1042.22 48.5618 1044.57 48.2675C1060.05 46.325 1075.59 44.3825 1091.07 42.2634C1097.2 41.4393 1097.96 44.4414 1097.96 49.6213C1097.84 109.838 1097.84 169.996 1097.9 230.213V236.217C1098.02 242.044 1099.96 245.635 1106.85 244.869C1109.91 244.516 1114.8 243.28 1114.21 249.166C1113.74 253.875 1117.62 260.527 1108.67 261.999C1101.08 263.294 1093.9 266.06 1085.95 265.825C1073.95 265.471 1072.41 264.471 1069.71 252.934C1069.18 251.168 1070.06 248.99 1068.12 247.165ZM1067.71 173.822C1067.71 157.34 1067.47 140.859 1067.82 124.436C1067.94 119.138 1066.18 115.783 1061.64 113.782C1042.92 105.541 1017.26 109.073 1006.9 130.675C1002.01 140.918 999.189 151.513 998.13 162.815C996.482 180.061 995.893 197.132 1001.72 213.731C1006.02 226.033 1012.37 236.688 1025.91 241.22C1040.57 246.106 1052.7 240.985 1064.17 232.508C1067.35 230.154 1067.82 226.916 1067.76 223.267C1067.65 206.785 1067.71 190.304 1067.71 173.822ZM1237.17 188.714C1237.17 207.786 1237.41 223.031 1237.05 238.218C1236.94 244.104 1238.17 246.989 1244.77 246.518C1248 246.282 1253.36 243.81 1253.71 250.815C1254.01 256.819 1254.3 261.94 1245.88 263.058C1238.29 264.059 1230.81 266.06 1222.99 265.884C1211.92 265.589 1210.33 264.353 1208.74 253.228C1208.51 251.639 1209.57 249.402 1207.45 248.578C1205.44 247.813 1204.5 249.991 1203.21 251.05C1181.96 268.709 1155.23 271.063 1134.69 257.407C1125.21 251.109 1120.03 241.926 1118.98 231.331C1115.97 201.134 1123.51 184.77 1156.06 171.173C1170.42 165.169 1185.9 163.698 1201.27 162.403C1205.8 161.991 1207.33 160.754 1207.27 156.222C1207.09 147.51 1206.98 138.916 1203.5 130.558C1200.03 122.199 1193.67 119.256 1185.37 118.609C1167.48 117.196 1150.76 121.552 1134.57 128.674C1131.57 130.028 1127.57 133.089 1125.86 127.909C1124.33 123.376 1117.92 118.432 1126.16 113.37C1145.4 101.597 1165.59 93.121 1188.61 93.2387C1197.09 93.2976 1205.56 94.828 1213.39 98.0066C1229.11 104.364 1233.64 118.02 1235.76 133.265C1238.47 153.102 1236.35 172.88 1237.17 188.714ZM1207.21 205.784C1207.21 198.544 1207.15 191.304 1207.21 184.064C1207.21 181.003 1206.86 178.296 1202.8 179.12C1194.26 180.886 1185.55 180.768 1177.07 183.181C1155.23 189.303 1144.93 209.552 1153.7 230.448C1156.71 237.629 1162.42 242.103 1170.13 243.162C1181.96 244.811 1192.85 241.455 1203.09 235.628C1206.27 233.803 1207.39 231.154 1207.33 227.564C1207.03 220.324 1207.21 213.025 1207.21 205.784ZM1460.67 188.773C1460.67 204.784 1460.73 220.736 1460.62 236.746C1460.62 240.631 1460.73 243.869 1465.97 243.339C1469.15 242.986 1471.8 244.045 1471.03 247.754C1470.15 251.933 1474.33 257.76 1467.62 260.056C1458.5 263.117 1449.02 263.529 1439.54 262.411C1433.71 261.704 1432.95 256.465 1432.6 252.227C1432.13 245.458 1431.65 243.692 1425.3 249.049C1405.23 265.942 1377.91 267.708 1358.02 254.229C1347.72 247.283 1343.36 237.1 1342.12 225.15C1338.36 188.42 1360.72 173.704 1388.21 165.287C1400.22 161.637 1412.58 160.578 1424.94 159.459C1429.71 159.047 1430.83 157.34 1430.71 153.043C1430.48 145.332 1430.95 137.621 1428.24 130.146C1424.89 120.904 1419.23 116.372 1409.52 115.724C1391.69 114.488 1374.91 118.432 1358.66 125.496C1355.13 127.026 1351.31 130.263 1348.78 124.318C1346.77 119.609 1342.42 114.841 1349.72 110.427C1373.97 95.7109 1399.4 85.9397 1428.36 92.3557C1447.25 96.535 1457.14 109.485 1459.32 129.675C1460.38 139.623 1460.62 149.512 1460.62 159.518C1460.67 169.29 1460.67 179.061 1460.67 188.773ZM1430.71 203.724C1430.71 196.249 1430.54 188.773 1430.77 181.298C1430.89 176.942 1429.18 175.294 1425 175.882C1417.88 176.883 1410.7 177.53 1403.69 179.12C1381.8 184.005 1371.5 199.604 1375.32 221.56C1377.03 231.331 1384.56 238.865 1394.22 240.16C1406.11 241.75 1416.88 238.159 1427 232.273C1429.89 230.566 1430.77 227.976 1430.71 224.68C1430.6 217.734 1430.71 210.729 1430.71 203.724Z" fill="#CADBFC"/>
<path d="M818.952 179.885C818.952 162.874 818.657 145.921 819.069 128.91C819.246 122.788 817.127 120.728 811.358 121.611C810.872 121.699 810.373 121.699 809.887 121.611C806.531 120.551 801.41 124.436 799.998 118.197C797.938 109.485 799.88 104.658 807.12 102.304C814.772 99.7725 819.835 94.8869 823.366 87.8234C827.958 78.6408 831.842 69.1639 834.609 59.3338C835.669 55.6254 837.376 54.2716 841.378 54.1538C860.685 53.6241 860.626 53.5063 860.921 72.8134C860.98 79.0528 861.451 85.2923 861.451 91.5318C861.392 95.4756 863.04 96.7705 866.807 96.7117C876.284 96.594 885.82 96.8883 895.297 96.594C899.829 96.4763 901.242 97.9478 901.36 102.539C901.831 121.787 901.948 121.787 883.171 121.787C877.697 121.787 872.164 121.964 866.689 121.728C862.746 121.611 861.451 123.259 861.509 127.085C861.745 159.047 861.745 191.01 862.216 222.973C862.333 232.979 866.631 236.276 876.696 235.334C883.171 234.745 889.587 233.803 895.709 231.508C899.182 230.213 900.948 230.978 902.419 234.627C907.893 248.107 907.835 248.578 894.649 255.347C879.698 262.999 863.923 267.061 846.97 265.884C833.608 264.942 825.309 258.408 821.365 245.576C819.599 239.807 818.952 233.862 818.952 227.858V179.885ZM244.038 126.967C247.393 122.023 250.572 116.725 254.398 111.957C264.287 99.6548 276.059 90.6488 292.894 90.4134C299.251 90.3545 302.489 92.0615 302.136 99.3605C301.547 111.604 301.841 123.847 302.018 136.091C302.077 140.447 301.017 141.742 296.367 140.565C282.475 137.092 268.643 138.092 254.986 142.213C250.277 143.625 248.158 145.862 248.217 151.16C248.511 177.648 248.453 204.136 248.217 230.625C248.158 235.864 249.924 237.453 254.986 237.688C262.226 238.041 269.349 239.572 276.589 239.984C281.004 240.278 281.946 242.221 281.828 246.106C281.475 262.94 283.535 259.526 268.584 259.644C243.861 259.88 219.08 259.526 194.358 259.821C189.001 259.88 186.176 258.761 187.176 252.875C187.294 252.169 187.176 251.403 187.176 250.638C187.294 238.277 185.764 239.572 197.595 238.63C205.424 237.983 207.013 234.686 206.895 227.446C206.483 195.955 206.66 164.463 206.778 132.971C206.778 128.38 205.777 125.908 200.891 124.377C187.883 120.375 184.998 114.429 187.824 100.891C188.471 97.8301 190.473 97.5946 192.651 97.2415C205.718 95.2401 218.786 93.121 231.912 91.414C237.74 90.6488 242.625 95.5344 242.743 101.774C242.919 110.015 242.919 118.255 242.978 126.496C242.919 126.614 243.332 126.732 244.038 126.967ZM392.608 165.758C392.608 187.478 392.843 209.199 392.431 230.919C392.313 237.041 394.256 239.631 400.201 239.69C401.908 239.69 403.674 240.396 405.381 240.455C410.855 240.514 412.327 243.221 412.209 248.519C411.915 261.41 412.209 261.41 399.024 261.41C378.54 261.41 358.055 261.175 337.571 261.587C331.155 261.704 328.918 259.644 329.919 253.581C330.037 252.875 330.037 252.051 329.919 251.344C328.271 243.163 332.214 239.807 339.925 240.16C347.931 240.514 350.285 237.159 350.168 229.094C349.638 198.662 349.697 168.171 350.168 137.68C350.285 130.499 348.284 126.673 341.22 124.907C337.865 124.083 332.568 124.26 331.979 119.904C331.096 113.782 331.685 107.484 332.038 101.244C332.156 99.2428 334.628 99.1839 336.335 98.9485C352.875 96.6528 369.475 94.416 386.015 92.0026C391.431 91.1786 392.784 93.1799 392.726 98.4187C392.49 120.787 392.608 143.272 392.608 165.758Z" fill="white"/>
<path d="M1261.19 179.12C1261.19 160.401 1261.01 141.624 1261.31 122.906C1261.42 117.373 1259.77 114.9 1254.12 115.724C1252.89 115.901 1251.59 115.96 1250.42 115.724C1247.41 115.018 1242.47 118.02 1241.94 112.487C1241.47 107.484 1239.41 101.48 1247.41 99.3017C1259.66 95.9465 1263.42 85.2334 1267.13 74.7559C1268.96 69.5759 1270.78 64.396 1272.25 59.0983C1273.31 55.3311 1275.31 54.095 1279.26 54.1538C1293.74 54.4482 1291.03 53.2709 1291.27 66.1618C1291.38 72.6368 1291.74 79.1706 1291.15 85.6455C1290.5 92.4736 1293.86 94.5926 1299.74 94.6515C1310.22 94.7104 1320.76 94.8869 1331.23 94.5926C1336.06 94.4749 1337.83 95.9465 1337.77 100.95C1337.47 117.785 1338.89 115.607 1323.52 115.724C1314.52 115.783 1305.51 115.842 1296.51 115.666C1292.68 115.607 1291.21 116.961 1291.21 120.904C1291.33 153.397 1291.21 185.889 1291.38 218.381C1291.38 222.325 1292.21 226.269 1292.86 230.213C1293.86 236.334 1299.74 239.749 1308.1 238.571C1315.69 237.453 1323.23 235.687 1330.82 234.51C1333.35 234.098 1337 231.743 1337.83 236.864C1338.53 241.279 1344.01 246.341 1337.3 250.05C1324.99 256.878 1312.1 262.234 1297.8 262.764C1291.62 262.999 1285.26 263.941 1279.2 261.94C1267.9 258.114 1261.36 248.519 1261.25 235.393C1261.13 216.615 1261.19 197.897 1261.19 179.12Z" fill="#CADBFC"/>
<path d="M364.941 0C366.06 12.7144 375.831 19.0716 381.541 27.901C383.012 30.1378 384.366 28.5485 385.484 26.9592C386.721 25.1345 389.016 19.8368 392.254 19.4248C390.193 27.5478 392.018 37.9666 393.195 45.6187C396.08 63.5719 386.014 78.8174 369.238 81.996C349.343 85.8221 332.626 68.9873 336.275 48.915C337.629 41.616 344.339 34.1993 340.808 27.1358C335.804 17.1291 343.986 24.0749 345.458 25.8408C351.579 32.9043 352.58 26.3706 353.993 22.6034C355.405 18.895 355.818 14.8923 356.759 11.0074C357.878 6.47493 359.997 2.76656 364.941 0Z" fill="white"/>
</svg>
