<svg width="100" height="210" viewBox="0 0 100 210" fill="none" xmlns="http://www.w3.org/2000/svg">
<path d="M20.1874 125.12C20.1874 106.401 20.0109 87.624 20.3052 68.9056C20.4229 63.3725 18.7747 60.9003 13.1239 61.7244C11.8878 61.901 10.5928 61.9599 9.4155 61.7244C6.41349 61.0181 1.46909 64.02 0.939322 58.4869C0.468419 53.4836 -1.59182 47.4796 6.41353 45.3017C18.657 41.9465 22.4243 31.2334 26.1326 20.7559C27.9574 15.5759 29.7821 10.396 31.2537 5.09831C32.3132 1.33108 34.3146 0.094985 38.2584 0.153848C52.7386 0.448162 50.0309 -0.729135 50.2664 12.1618C50.3841 18.6368 50.7373 25.1706 50.1487 31.6455C49.5012 38.4736 52.8563 40.5926 58.7426 40.6515C69.2202 40.7104 79.7567 40.8869 90.2343 40.5926C95.0611 40.4749 96.8269 41.9465 96.7681 46.9498C96.4738 63.7846 97.8865 61.6067 82.5233 61.7244C73.5173 61.7833 64.5112 61.8421 55.5051 61.6655C51.6791 61.6067 50.2075 62.9605 50.2075 66.9043C50.3252 99.3966 50.2075 131.889 50.3841 164.381C50.3841 168.325 51.2082 172.269 51.8557 176.213C52.8563 182.334 58.7426 185.749 67.1011 184.571C74.6945 183.453 82.2289 181.687 89.8222 180.51C92.3533 180.098 96.0028 177.743 96.8269 182.864C97.5333 187.279 103.008 192.341 96.2972 196.05C83.9948 202.878 71.1038 208.234 56.8001 208.764C50.6195 208.999 44.2624 209.941 38.1995 207.94C26.8979 204.114 20.3641 194.519 20.2463 181.393C20.1286 162.615 20.1874 143.897 20.1874 125.12Z" fill="#CADBFC"/>
</svg>
