<svg width="59" height="83" viewBox="0 0 59 83" fill="none" xmlns="http://www.w3.org/2000/svg">
<path d="M29.9413 0C31.0597 12.7144 40.8309 19.0716 46.5406 27.901C48.0122 30.1378 49.366 28.5485 50.4844 26.9592C51.7205 25.1345 54.0162 19.8368 57.2537 19.4248C55.1935 27.5478 57.0182 37.9666 58.1955 45.6187C61.0798 63.5719 51.0142 78.8174 34.2383 81.996C14.3426 85.8221 -2.37443 68.9873 1.27507 48.915C2.62892 41.616 9.33929 34.1993 5.80752 27.1358C0.804172 17.1291 8.9861 24.0749 10.4577 25.8408C16.5794 32.9043 17.5801 26.3706 18.9928 22.6034C20.4055 18.895 20.8175 14.8923 21.7594 11.0074C22.8777 6.47493 24.9968 2.76656 29.9413 0Z" fill="white"/>
</svg>
