<svg width="790" height="312" viewBox="0 0 790 312" fill="none" xmlns="http://www.w3.org/2000/svg">
<path d="M461.477 161.546C438.108 147.242 431.456 125.698 436.048 100.623C440.816 74.7232 459.299 60.8904 483.374 55.0041C508.273 48.8824 533.054 49.9419 555.775 63.8335C559.483 66.1292 561.249 64.0101 563.486 62.1265C572.315 54.7098 582.734 52.0021 594.036 51.3546C598.686 51.0603 600.157 52.7673 599.981 57.2998C599.687 65.0108 599.745 72.7807 599.981 80.5506C600.099 84.3767 598.862 86.0249 594.86 85.7894C589.621 85.554 584.323 85.966 579.143 85.6717C574.317 85.4362 572.786 86.2603 573.963 91.7934C578.849 114.75 573.61 135.175 555.716 151.009C539.47 165.372 519.633 169.551 498.501 168.904C495.499 168.786 492.438 168.786 489.554 168.139C482.373 166.667 478.017 168.963 476.663 176.438C475.015 185.503 477.605 191.86 484.727 194.509C489.672 196.334 494.97 196.569 500.208 196.805C517.691 197.57 535.232 195.745 552.655 198.041C569.902 200.337 586.148 204.869 592.976 223.058C600.452 242.953 597.744 262.025 584.264 278.801C568.195 298.755 545.886 306.937 521.517 310.175C500.738 313 480.077 311.764 460.358 303.641C437.46 294.223 426.512 274.504 431.869 252.312C434.871 239.892 442.758 231.24 453.589 224.941C455.826 223.646 459.063 223.058 455.237 219.29C438.108 202.632 438.461 183.031 455.826 166.608C457.474 165.078 459.357 163.488 461.477 161.546ZM508.979 288.101C514.571 288.337 519.986 287.336 525.343 286.159C536.468 283.686 546.004 278.506 551.772 268.147C562.485 249.016 553.185 231.652 531.935 229.415C514.983 227.649 498.03 230.827 481.137 228.65C478.017 228.238 476.722 230.651 475.545 232.829C468.717 246.014 469.188 259.494 475.545 272.444C482.314 286.217 495.911 287.042 508.979 288.101ZM479.547 107.922C479.371 117.752 480.018 126.699 483.903 135.058C488.377 144.593 496.676 149.302 507.625 148.655C517.161 148.066 524.695 142.062 527.403 131.938C531.288 117.458 531.464 102.801 527.462 88.2616C524.578 77.9018 517.455 72.7218 506.507 72.3686C494.263 71.9566 486.67 76.4891 482.726 86.6135C479.959 93.7359 479.194 101.153 479.547 107.922ZM673.442 146.536C673.442 161.781 673.736 177.027 673.324 192.272C673.147 198.335 675.149 200.866 681.094 201.22C684.92 201.455 690.571 200.69 691.807 204.575C693.337 209.343 692.454 214.935 692.16 220.173C691.984 222.999 687.392 222.469 687.392 222.469L619.876 222.528C619.876 222.528 614.285 221.292 614.697 217.348C614.873 215.641 614.932 213.816 614.697 212.109C613.578 204.81 615.933 200.807 623.997 200.925C629.824 200.984 631.531 197.864 631.531 191.919C631.237 140.414 631.237 88.968 631.531 37.463C631.59 30.6937 629.412 27.9272 623.055 27.6329C622.054 27.574 621.054 27.3974 620.112 27.2208C611.695 25.9258 607.633 17.9794 611.106 10.0918C611.989 8.03155 613.637 7.97268 615.344 7.73723C632.65 5.32385 649.955 2.96932 667.261 0.497078C672.088 -0.209277 673.147 2.08639 673.089 6.44224C672.971 26.1613 673.089 45.9392 673.206 65.6583C673.206 67.7185 671.852 70.6028 674.266 71.7211C676.503 72.7218 678.327 70.2496 680.093 69.0723C695.162 58.8302 711.467 53.0028 730.068 54.0035C750.729 55.1219 763.325 65.4817 767.446 86.1426C769.918 98.4449 770.507 110.924 770.448 123.403C770.33 146.124 770.742 168.904 770.212 191.625C770.095 198.217 772.39 200.454 778.394 201.043C781.985 201.337 787.518 200.278 788.636 203.81C790.167 208.813 789.343 214.64 789.225 220.114C789.166 222.528 785.163 222.292 785.163 222.292L717.648 222.351C717.648 222.351 712.88 220.644 712.939 217.348C712.998 215.111 713.174 212.815 712.88 210.579C712.115 204.634 714.763 201.632 720.591 201.396C726.83 201.102 728.714 198.159 728.537 191.801C727.713 163.312 729.479 134.822 727.478 106.391C725.947 84.8476 715.058 77.2543 694.103 82.9051C692.631 83.3171 691.218 83.7881 689.806 84.2001C674.678 88.9091 673.383 90.6161 673.383 106.038C673.442 119.577 673.442 133.056 673.442 146.536ZM20.8879 121.99C20.8879 94.0302 20.7701 66.0115 21.0056 38.0516C21.0644 32.6362 20.0049 29.3988 14.0009 29.5165C13.0591 29.5165 12.0584 29.1044 11.0578 28.9279C1.87515 27.3386 -2.12753 20.275 1.10993 11.7399C1.93401 9.56198 3.52331 9.50313 5.23033 9.26768C22.7715 6.8543 40.3715 4.49975 57.8537 1.96865C62.8571 1.26229 63.0337 3.91112 63.0337 7.61948C62.9748 25.3372 62.9748 43.1138 63.0337 60.8315C63.0337 63.186 61.9741 66.4824 64.623 67.6596C66.742 68.6014 68.5079 65.8937 70.2738 64.5987C98.1159 43.9379 143.617 49.2356 157.921 90.9693C169.046 123.403 169.163 156.072 152.27 186.798C138.319 212.168 115.834 225 86.6377 225.589C66.742 226.001 47.3173 223.823 28.3046 217.524C22.8303 215.7 20.6524 212.933 20.7701 206.753C21.0644 178.44 20.8879 150.244 20.8879 121.99ZM62.9748 144.888C62.9748 161.134 63.0925 177.38 62.9159 193.626C62.8571 198.1 63.9755 201.219 68.2725 203.28C79.4564 208.577 93.5835 206.223 102.177 197.335C107.887 191.448 111.36 184.326 113.715 176.615C119.777 156.837 119.424 136.706 117.305 116.457C116.607 109.735 114.755 103.184 111.831 97.0911C103.178 79.079 84.342 74.4289 68.037 86.1426C64.5053 88.6737 62.8571 91.6168 62.9159 96.1493C63.1514 112.395 62.9748 128.642 62.9748 144.888Z" fill="white"/>
</svg>
