<svg width="720" height="213" viewBox="0 0 720 213" fill="none" xmlns="http://www.w3.org/2000/svg">
<path d="M632.952 125.885C632.952 108.874 632.657 91.9211 633.069 74.9097C633.246 68.7879 631.127 66.7278 625.358 67.6107C624.872 67.699 624.373 67.699 623.887 67.6107C620.531 66.5512 615.41 70.4361 613.998 64.1966C611.938 55.4849 613.88 50.6582 621.12 48.3036C628.772 45.7725 633.835 40.8869 637.366 33.8234C641.958 24.6408 645.842 15.1639 648.609 5.33376C649.669 1.6254 651.376 0.271573 655.378 0.153847C674.685 -0.375919 674.626 -0.493655 674.921 18.8134C674.98 25.0528 675.451 31.2923 675.451 37.5318C675.392 41.4756 677.04 42.7705 680.807 42.7117C690.284 42.594 699.82 42.8883 709.297 42.594C713.829 42.4763 715.242 43.9478 715.36 48.5391C715.831 67.7873 715.948 67.7873 697.171 67.7873C691.697 67.7873 686.164 67.9639 680.689 67.7284C676.746 67.6107 675.451 69.2589 675.509 73.0849C675.745 105.047 675.745 137.01 676.216 168.973C676.333 178.979 680.631 182.276 690.696 181.334C697.171 180.745 703.587 179.803 709.709 177.508C713.182 176.213 714.948 176.978 716.419 180.627C721.893 194.107 721.835 194.578 708.649 201.347C693.698 208.999 677.923 213.061 660.97 211.884C647.608 210.942 639.309 204.408 635.365 191.576C633.599 185.807 632.952 179.862 632.952 173.858V125.885ZM58.0379 72.9672C61.393 68.0227 64.5716 62.7251 68.3977 57.9572C78.2867 45.6548 90.0593 36.6488 106.894 36.4134C113.251 36.3545 116.489 38.0615 116.136 45.3605C115.547 57.604 115.841 69.8475 116.018 82.091C116.077 86.4468 115.017 87.7418 110.367 86.5645C96.4753 83.0916 82.6425 84.0923 68.9864 88.2127C64.2773 89.6254 62.1583 91.8622 62.2171 97.1598C62.5114 123.648 62.4526 150.136 62.2171 176.625C62.1583 181.864 63.9241 183.453 68.9864 183.688C76.2265 184.041 83.3489 185.572 90.589 185.984C95.0038 186.278 95.9456 188.221 95.8278 192.106C95.4747 208.94 97.5349 205.526 82.5837 205.644C57.8613 205.88 33.08 205.526 8.3576 205.821C3.00107 205.88 0.175648 204.761 1.17632 198.875C1.29404 198.169 1.17632 197.403 1.17632 196.638C1.29404 184.277 -0.236389 185.572 11.595 184.63C19.4238 183.983 21.0131 180.686 20.8954 173.446C20.4834 141.955 20.6599 110.463 20.7777 78.9712C20.7777 74.3799 19.777 71.9076 14.8914 70.3772C1.88268 66.3745 -1.00161 60.4294 1.82381 46.8909C2.4713 43.8301 4.47264 43.5946 6.65057 43.2415C19.7181 41.2401 32.7857 39.121 45.9121 37.414C51.7395 36.6488 56.6252 41.5344 56.7429 47.7739C56.9195 56.0147 56.9195 64.2555 56.9783 72.4963C56.9195 72.614 57.3315 72.7317 58.0379 72.9672ZM206.608 111.758C206.608 133.478 206.843 155.199 206.431 176.919C206.313 183.041 208.256 185.631 214.201 185.69C215.908 185.69 217.674 186.396 219.381 186.455C224.855 186.514 226.327 189.221 226.209 194.519C225.915 207.41 226.209 207.41 213.024 207.41C192.54 207.41 172.055 207.175 151.571 207.587C145.155 207.704 142.918 205.644 143.919 199.581C144.037 198.875 144.037 198.051 143.919 197.344C142.271 189.163 146.214 185.807 153.925 186.16C161.931 186.514 164.285 183.159 164.168 175.094C163.638 144.662 163.697 114.171 164.168 83.6802C164.285 76.499 162.284 72.6729 155.22 70.907C151.865 70.0829 146.568 70.2595 145.979 65.9037C145.096 59.7819 145.685 53.4836 146.038 47.2441C146.156 45.2428 148.628 45.1839 150.335 44.9485C166.875 42.6528 183.475 40.416 200.015 38.0026C205.431 37.1786 206.784 39.1799 206.726 44.4187C206.49 66.7866 206.608 89.2722 206.608 111.758Z" fill="white"/>
</svg>
