<svg width="509" height="225" viewBox="0 0 509 225" fill="none" xmlns="http://www.w3.org/2000/svg">
<path d="M105.118 205.165C95.5819 213.759 85.0454 220.234 72.0367 222.589C46.137 227.298 20.826 214.407 10.2896 190.273C-3.30775 159.017 -3.24893 127.466 9.70091 96.2099C23.2982 63.3645 58.4983 45.2936 93.5217 52.2982C103.587 54.2996 104.706 53.3577 104.706 43.1745C104.706 39.1718 104.411 35.1691 104.764 31.1664C105.294 25.1624 103.293 22.1016 96.8768 22.749C93.1096 23.1022 89.4601 22.1604 85.8106 21.5129C78.0407 20.1002 76.3925 17.8634 77.7464 9.91694C78.1584 7.50356 79.218 6.56178 81.5725 6.26747C97.0535 4.32499 112.593 2.38249 128.074 0.263428C134.196 -0.560652 134.961 2.44135 134.961 7.62129C134.843 67.838 134.843 127.996 134.902 188.213V194.217C135.02 200.044 136.962 203.635 143.849 202.869C146.91 202.516 151.796 201.28 151.207 207.166C150.736 211.875 154.621 218.527 145.674 219.999C138.081 221.294 130.9 224.06 122.953 223.825C110.945 223.471 109.415 222.471 106.707 210.934C106.177 209.168 107.06 206.99 105.118 205.165ZM104.706 131.822C104.706 115.34 104.47 98.8587 104.823 82.436C104.941 77.1383 103.175 73.7832 98.6427 71.7818C79.9243 63.541 54.2601 67.0728 43.9002 88.6755C39.0146 98.9176 36.1892 109.513 35.1297 120.815C33.4816 138.061 32.8928 155.132 38.7203 171.731C43.0173 184.033 49.3744 194.688 62.9129 199.22C77.5698 204.106 89.6955 198.985 101.174 190.508C104.352 188.154 104.823 184.916 104.764 181.267C104.647 164.785 104.706 148.304 104.706 131.822ZM274.172 146.714C274.172 165.786 274.407 181.031 274.054 196.218C273.936 202.104 275.172 204.989 281.765 204.518C285.003 204.282 290.359 201.81 290.712 208.815C291.007 214.819 291.301 219.94 282.884 221.058C275.29 222.059 267.815 224.06 259.986 223.884C248.92 223.589 247.33 222.353 245.741 211.228C245.506 209.639 246.565 207.402 244.446 206.578C242.445 205.813 241.503 207.991 240.208 209.05C218.958 226.709 192.235 229.063 171.692 215.407C162.215 209.109 157.035 199.926 155.975 189.331C152.973 159.134 160.508 142.77 193.059 129.173C207.421 123.169 222.902 121.698 238.265 120.403C242.798 119.991 244.328 118.754 244.27 114.222C244.093 105.51 243.975 96.9163 240.502 88.5577C237.029 80.1992 230.672 77.2561 222.373 76.6086C204.478 75.1959 187.761 79.5517 171.574 86.6741C168.572 88.028 164.569 91.0889 162.862 85.9089C161.332 81.3765 154.916 76.432 163.156 71.3698C182.405 59.5972 202.595 51.121 225.61 51.2387C234.086 51.2976 242.562 52.828 250.391 56.0066C266.108 62.3638 270.64 76.0199 272.759 91.2654C275.467 111.102 273.348 130.88 274.172 146.714ZM244.211 163.784C244.211 156.544 244.152 149.304 244.211 142.064C244.211 139.003 243.857 136.296 239.796 137.12C231.261 138.886 222.549 138.768 214.073 141.181C192.235 147.303 181.934 167.552 190.704 188.448C193.706 195.629 199.416 200.103 207.127 201.162C218.958 202.811 229.848 199.455 240.09 193.628C243.269 191.803 244.387 189.154 244.328 185.564C244.034 178.324 244.211 171.025 244.211 163.784ZM497.674 146.773C497.674 162.784 497.733 178.736 497.615 194.746C497.615 198.631 497.733 201.869 502.972 201.339C506.15 200.986 508.799 202.045 508.034 205.754C507.151 209.933 511.33 215.76 504.62 218.056C495.496 221.117 486.019 221.529 476.542 220.411C470.715 219.704 469.95 214.465 469.597 210.227C469.126 203.458 468.655 201.692 462.298 207.049C442.225 223.942 414.913 225.708 395.017 212.229C384.716 205.283 380.36 195.1 379.124 183.15C375.357 146.42 397.725 131.704 425.214 123.287C437.222 119.637 449.583 118.578 461.944 117.459C466.712 117.047 467.831 115.34 467.713 111.043C467.478 103.332 467.948 95.6213 465.241 88.1457C461.886 78.9042 456.235 74.3718 446.522 73.7243C428.687 72.4882 411.911 76.432 395.665 83.4955C392.133 85.026 388.307 88.2634 385.776 82.3183C383.775 77.6093 379.419 72.8414 386.718 68.4267C410.969 53.7109 436.398 43.9397 465.358 50.3557C484.253 54.535 494.142 67.4848 496.32 87.6748C497.38 97.6226 497.615 107.512 497.615 117.518C497.674 127.29 497.674 137.061 497.674 146.773ZM467.713 161.724C467.713 154.249 467.536 146.773 467.772 139.298C467.89 134.942 466.183 133.294 462.003 133.882C454.881 134.883 447.7 135.53 440.695 137.12C418.798 142.005 408.497 157.604 412.323 179.56C414.03 189.331 421.564 196.865 431.218 198.16C443.108 199.75 453.88 196.159 464.005 190.273C466.889 188.566 467.772 185.976 467.713 182.68C467.595 175.734 467.713 168.729 467.713 161.724Z" fill="#CADBFC"/>
</svg>
